<?xml version="1.0" encoding="utf-8"?>
<!-- Generator: Adobe Illustrator 25.3.1, SVG Export Plug-In . SVG Version: 6.00 Build 0)  -->
<svg version="1.1" id="Layer_1" xmlns="http://www.w3.org/2000/svg" xmlns:xlink="http://www.w3.org/1999/xlink" x="0px" y="0px"
	 viewBox="0 0 300 90" style="enable-background:new 0 0 300 90;" xml:space="preserve">
<style type="text/css">
	.st0{fill:#243363;}
</style>
<path class="st0" d="M56.8,20.4c-0.5,0.8-1.1,1.5-1.8,2c-0.7,0.5-1.6,0.7-2.5,0.7c-1,0-2-0.3-2.9-0.8L46,20.4
	c-1.4-0.7-2.9-1.4-4.5-1.9c-1.9-0.6-3.8-0.9-5.8-0.8c-3.7,0-6.5,0.8-8.3,2.3c-1.8,1.5-2.8,3.8-2.7,6.2c0,1.6,0.6,3.1,1.6,4.1
	c1.2,1.2,2.7,2.2,4.3,2.8c2,0.9,4,1.6,6.1,2.2c2.3,0.7,4.6,1.4,7,2.2c2.4,0.8,4.7,1.8,7,2.9c2.3,1.1,4.3,2.5,6.2,4.2
	c1.8,1.8,3.3,3.9,4.3,6.2c1.2,2.8,1.7,5.8,1.6,8.8c0,3.7-0.6,7.3-2,10.7c-1.4,3.3-3.4,6.3-6,8.7c-2.8,2.6-6,4.6-9.6,5.8
	c-4.2,1.5-8.6,2.2-13,2.1c-2.7,0-5.4-0.3-8.1-0.8c-2.7-0.5-5.4-1.3-8-2.2c-2.5-0.9-4.9-2.1-7.3-3.4c-2.1-1.2-4.1-2.7-5.9-4.4l5.9-9
	c0.5-0.7,1.1-1.3,1.8-1.7c0.8-0.4,1.6-0.6,2.5-0.6c1.3,0,2.5,0.4,3.5,1.1c1.2,0.7,2.5,1.5,4,2.4c1.7,0.9,3.4,1.8,5.2,2.4
	c2.2,0.8,4.6,1.1,6.9,1.1c3.6,0,6.4-0.8,8.4-2.3s3-4,3-7.3c0.1-1.7-0.5-3.4-1.6-4.7c-1.2-1.3-2.7-2.3-4.3-3c-2-0.9-4-1.6-6.1-2.1
	c-2.3-0.6-4.6-1.3-7-2c-2.4-0.7-4.7-1.7-7-2.7c-2.2-1.1-4.3-2.5-6.1-4.3c-1.9-1.9-3.3-4.2-4.3-6.7c-1.2-3.1-1.7-6.4-1.6-9.7
	c0-3.1,0.7-6.2,1.9-9.1c1.3-3,3.3-5.7,5.7-7.9c2.7-2.4,5.8-4.3,9.2-5.5c4-1.4,8.2-2.1,12.5-2.1c2.6,0,5.1,0.2,7.7,0.6
	C45.6,3.6,48,4.2,50.3,5c2.2,0.7,4.2,1.7,6.2,2.8c1.9,1,3.6,2.3,5.2,3.7L56.8,20.4z"/>
<path class="st0" d="M143,3.6v15.2h-24v67.6H99.1V18.8h-24V3.6H143z"/>
<path class="st0" d="M179.2,55.8v30.6h-19.8V3.6h27.8c5.3-0.1,10.7,0.5,15.8,1.8c3.9,1,7.5,2.7,10.7,5.2c2.6,2,4.7,4.7,6,7.8
	c1.3,3.1,1.9,6.4,1.9,9.8c0,2.6-0.4,5.1-1.1,7.6c-0.7,2.4-1.9,4.6-3.3,6.6c-1.5,2.1-3.3,3.9-5.4,5.4c-2.3,1.7-4.7,3-7.4,3.9
	c1.3,0.6,2.6,1.4,3.7,2.4c1.2,1,2.2,2.2,3,3.5l18.2,28.8h-18c-3.3,0-5.7-1.2-7.1-3.6l-14.2-24c-0.5-0.9-1.3-1.7-2.2-2.3
	c-1.1-0.5-2.3-0.7-3.6-0.7H179.2z M179.2,42.5h8c2.3,0.1,4.7-0.3,6.9-1c1.7-0.6,3.3-1.5,4.7-2.8c1.2-1.1,2.1-2.6,2.6-4.1
	c0.6-1.6,0.8-3.4,0.8-5.1c0.2-3.3-1.2-6.4-3.7-8.6c-2.4-2-6.2-3-11.3-3h-8L179.2,42.5z"/>
<path class="st0" d="M265.4,71.1H297v15.4h-51.5V3.6h19.8V71.1z"/>
</svg>
