<svg id="Layer_1" data-name="Layer 1" xmlns="http://www.w3.org/2000/svg" viewBox="0 0 300 90"><defs><style>.cls-1{fill:#fff;}</style></defs><path class="cls-1" d="M56.81,20.42a7.17,7.17,0,0,1-1.85,2,4.17,4.17,0,0,1-2.49.69,6.22,6.22,0,0,1-2.9-.83l-3.52-1.84a28.93,28.93,0,0,0-4.48-1.85,18.47,18.47,0,0,0-5.75-.83q-5.57,0-8.29,2.31a7.7,7.7,0,0,0-2.73,6.22,5.62,5.62,0,0,0,1.65,4.15,14.11,14.11,0,0,0,4.3,2.84,46,46,0,0,0,6.1,2.19q3.43,1,7,2.21a64.52,64.52,0,0,1,7,2.88A23.36,23.36,0,0,1,57,44.8,19.6,19.6,0,0,1,61.26,51a21.66,21.66,0,0,1,1.64,8.84,28,28,0,0,1-2,10.74,25.07,25.07,0,0,1-6,8.73,27.75,27.75,0,0,1-9.61,5.85,37,37,0,0,1-13,2.13,42.85,42.85,0,0,1-8.12-.79,48.83,48.83,0,0,1-8-2.25,47.12,47.12,0,0,1-7.27-3.43A30.81,30.81,0,0,1,3,76.4l5.86-9a4.78,4.78,0,0,1,1.82-1.65,5.34,5.34,0,0,1,2.52-.62,6.8,6.8,0,0,1,3.54,1.08c1.2.72,2.54,1.51,4.05,2.39A33.11,33.11,0,0,0,26,71a20,20,0,0,0,6.91,1.08c3.6,0,6.39-.76,8.38-2.3s3-4,3-7.3a6.73,6.73,0,0,0-1.64-4.72,12.57,12.57,0,0,0-4.31-3,40.28,40.28,0,0,0-6.06-2.11c-2.27-.6-4.59-1.27-7-2a51.9,51.9,0,0,1-7-2.73,22,22,0,0,1-6.07-4.26A20,20,0,0,1,7.92,37,25.51,25.51,0,0,1,6.28,27.3a22.56,22.56,0,0,1,1.94-9.1,23.52,23.52,0,0,1,5.68-7.9,28.09,28.09,0,0,1,9.2-5.54A35.06,35.06,0,0,1,35.59,2.69a48,48,0,0,1,7.65.59A42.14,42.14,0,0,1,50.3,5a39.36,39.36,0,0,1,6.24,2.79,28.63,28.63,0,0,1,5.19,3.66Z"/><path class="cls-1" d="M143,3.59V18.83h-24V86.41H99.12V18.83h-24V3.59Z"/><path class="cls-1" d="M179.19,55.77V86.41H159.38V3.59h27.78A58.81,58.81,0,0,1,203,5.44a29.94,29.94,0,0,1,10.66,5.15,19.44,19.44,0,0,1,6,7.78,25.14,25.14,0,0,1,1.88,9.78,25.19,25.19,0,0,1-1.12,7.61,22.64,22.64,0,0,1-3.31,6.63,25.16,25.16,0,0,1-5.39,5.42,29.13,29.13,0,0,1-7.36,3.93,19,19,0,0,1,3.73,2.38,14.51,14.51,0,0,1,3,3.47l18.17,28.82H211.31c-3.32,0-5.71-1.22-7.15-3.64L190,58.73a5.88,5.88,0,0,0-2.19-2.28,7.64,7.64,0,0,0-3.55-.68Zm0-13.24h8a20.8,20.8,0,0,0,6.89-1,12.56,12.56,0,0,0,4.66-2.75,10.43,10.43,0,0,0,2.63-4.12,15.35,15.35,0,0,0,.83-5.09A10.54,10.54,0,0,0,198.5,21Q194.84,18,187.16,18h-8Z"/><path class="cls-1" d="M265.35,71.06H297V86.41H245.54V3.59h19.81Z"/></svg>